<?xml version="1.0" encoding="UTF-8"?>
<svg width="600" height="600" version="1.1" xmlns="http://www.w3.org/2000/svg">
 <path d="m88.46 511.67c64.33 64.346 144.74 88.335 213.17 88.335 83.376 0 167.32-33.725 219.51-93.697 52.198-59.972 78.861-135.47 78.861-242.43v-263.88h-263.81c-108.77 0-178.32 33.302-215.28 57.996-38.231 25.682-106.09 94.403-118.93 206.16-10.157 88.053 18.763 179.92 86.479 247.51" fill="#00a687"/>
 <path d="m427.75 332.6c-4.0912-2.1167-8.0413-3.2455-11.85-3.2455-3.5269 0-6.3484 0.70556-8.6056 2.1166-2.2572 1.4111-4.3733 3.9511-6.6306 7.7611l-16.083 27.94-15.8-29.774c-2.6804-5.3622-7.0538-8.0433-13.12-8.0433-3.9501 0-8.7467 1.27-14.249 3.6689l28.638 52.211-32.306 54.892h24.406l20.879-36.265 16.788 28.081c2.1161 3.6689 4.5144 6.35 6.9127 7.761s5.643 2.2578 9.4521 2.2578c3.9501 0 8.3235-0.84666 12.838-2.3989l-31.883-55.033zm-113.28 90.028h-34.846v-30.339h34.564v-17.498h-34.564v-27.093h32.165c4.9376 0 8.6056-0.84666 10.722-2.6811 2.1161-1.6933 3.2447-4.6566 3.2447-8.8899 0-2.3989-0.14108-4.3744-0.42323-6.0677h-67.998v110.07h70.679c0.14107-0.98777 0.14107-1.8344 0.28215-2.6811 0-0.84666 0.14108-1.8344 0.14108-3.1044 0-3.6689-1.1286-6.6322-3.5269-8.6077-2.8215-2.1166-6.0662-3.1044-10.44-3.1044zm-147.71-92.568c-4.2323 0-7.6181 1.1289-10.157 3.2455-2.5394 2.1167-3.809 5.08-3.809 8.6077 0 2.3989 0.14107 4.6566 0.42322 6.6322h34.14v91.58h22.572v-91.58h20.597c4.2323 0 7.477-0.98777 9.8753-3.1044 2.3983-1.9756 3.5269-4.7978 3.5269-8.3255 0-2.3989-0.14108-4.7977-0.42323-7.0555zm303.17 27.516c0.5643-0.42334 1.1286-0.98777 1.6929-1.6933 0.5643-0.70555 0.84645-1.4111 1.1286-2.2578s0.42323-1.8344 0.42323-2.9633c0-2.6811-0.84645-4.6566-2.6804-6.0677-1.834-1.27-4.6555-1.9755-8.6056-1.9755-0.98753 0-2.1161 0-3.3858 0.14111s-2.5394 0.14111-3.809 0.28222v27.093h5.643v-10.301h2.2572l4.6555 7.9022c0.5643 0.98776 1.1286 1.6933 1.834 2.1166s1.5518 0.70555 2.5394 0.70555c0.5643 0 0.98753-0.14111 1.6929-0.14111 0.5643-0.14111 1.1286-0.28222 1.5518-0.56444l-6.7716-11.289c0.5643-0.14112 1.2697-0.56445 1.834-0.98777zm-3.9501-2.6811c-0.98753 0.70555-2.2572 1.1289-3.809 1.1289h-1.834v-9.4544c0.28215 0 0.5643 0 0.84645-0.1411h1.2697c1.5518 0 2.6804 0.28222 3.668 0.98777 0.84646 0.70555 1.2697 1.8344 1.2697 3.5278 0 1.9755-0.5643 3.1044-1.4108 3.9511zm-2.9626-25.541c-15.236 0-27.51 12.418-27.51 27.799s12.415 27.799 27.51 27.799c15.236 0 27.651-12.418 27.651-27.799s-12.415-27.799-27.651-27.799zm0 49.106c-11.709 0-21.161-9.5955-21.161-21.308 0-11.712 9.4521-21.308 21.161-21.308s21.161 9.5955 21.161 21.308c0.14108 11.712-9.4521 21.308-21.161 21.308zm26.522-185.7c-8.4645-10.019-20.456-14.958-35.974-14.958-10.157 0-19.045 2.2578-26.522 6.7733s-13.261 11.148-17.493 19.755c-4.0912 8.7488-6.2073 18.909-6.2073 30.48 0 11.712 1.834 22.013 5.643 30.762 3.809 8.7488 9.311 15.522 16.506 20.179 7.3359 4.6566 16.224 7.0555 26.804 7.0555 15.942 0 28.356-5.08 36.962-15.381s12.979-24.553 12.979-42.756c-0.14107-17.921-4.2323-31.891-12.697-41.91zm-17.211 71.684c-4.5144 7.0555-11.004 10.583-19.468 10.583s-14.954-3.5278-19.61-10.583c-4.5144-7.0555-6.9127-16.933-6.9127-29.492 0-12.418 2.2572-22.154 6.9127-28.786 4.5144-6.7733 11.286-10.16 20.033-10.16 8.3235 0 14.813 3.3866 19.186 10.16s6.6306 16.369 6.6306 28.786c0 12.559-2.2572 22.436-6.7716 29.492zm-133.88-30.198c-2.1161 6.2088 3.1037 11.571 8.0413 17.921l23.983 31.185c4.3733 5.6444 10.157 8.6077 17.493 8.6077 4.3734 0 8.6056-1.27 12.838-3.81l-40.63-55.315 35.974-48.401c-1.5518-1.5522-3.3858-2.6811-5.7841-3.6689-2.3983-0.84667-4.7966-1.27-7.477-1.27-3.1037 0-5.7841 0.70554-8.1824 2.1166-2.3983 1.4111-4.9376 3.6689-7.1948 6.7733l-22.29 29.492c-2.1161 2.8222-3.809 5.3622-4.7966 7.62-0.98753 2.2578-2.6804 5.08-1.834 6.7733v-40.075c0-8.4666-4.7966-12.841-14.531-12.841-1.6929 0-4.3733 0.28222-7.9002 0.84665v109.78h22.29zm-38.09 53.057c0-0.84667 0.14108-1.8344 0.14108-3.1044 0-3.6689-1.1286-6.6322-3.5269-8.6077s-5.643-3.1044-10.016-3.1044h-34.846v-30.339h34.564v-17.498h-34.564v-27.093h32.024c4.9376 0 8.6056-0.84666 10.722-2.6811 2.1161-1.6933 3.2447-4.6566 3.2447-8.8899 0-2.3989-0.14107-4.3744-0.42322-6.0677h-67.998v110.07h70.679c-0.14107-0.98777 0-1.8344 0-2.6811zm-103.13-9.8777c8.6056-10.301 12.979-24.553 12.979-42.756 0-17.921-4.2323-31.891-12.697-41.91-8.4645-10.019-20.456-14.958-35.974-14.958-10.157 0-19.045 2.2578-26.522 6.7733s-13.261 11.148-17.493 19.755c-4.0912 8.7488-6.2073 18.909-6.2073 30.48 0 11.712 1.834 22.013 5.643 30.762 3.809 8.7488 9.311 15.522 16.506 20.179 7.3359 4.6566 16.224 7.0555 26.804 7.0555 15.942 0 28.215-5.08 36.962-15.381zm-55.866-13.123c-4.5144-7.0555-6.9127-16.933-6.9127-29.492 0-12.418 2.2572-22.154 6.9127-28.786 4.5144-6.7733 11.286-10.16 20.033-10.16 8.3234 0 14.813 3.3866 19.186 10.16 4.3733 6.7733 6.6306 16.369 6.6306 28.786 0 12.7-2.2572 22.578-6.7716 29.492-4.5144 7.0555-11.004 10.583-19.468 10.583-8.6056 0-15.095-3.5278-19.61-10.583z" fill="#fff"/>
</svg>
